<?xml version="1.0" encoding="UTF-8"?>
<svg width="126px" height="30px" viewBox="0 0 126 30" version="1.1" xmlns="http://www.w3.org/2000/svg" xmlns:xlink="http://www.w3.org/1999/xlink">
    <title>Logo-G6VP-black</title>
    <defs>
        <linearGradient x1="50%" y1="0%" x2="50%" y2="100%" id="linearGradient-1">
            <stop stop-color="#B4C4FF" offset="0%"></stop>
            <stop stop-color="#676BFD" offset="100%"></stop>
        </linearGradient>
        <linearGradient x1="50%" y1="0%" x2="50%" y2="100%" id="linearGradient-2">
            <stop stop-color="#B4C4FF" offset="0%"></stop>
            <stop stop-color="#676BFD" offset="100%"></stop>
        </linearGradient>
        <linearGradient x1="50%" y1="0%" x2="50%" y2="100%" id="linearGradient-3">
            <stop stop-color="#B4C4FF" offset="0%"></stop>
            <stop stop-color="#676BFD" offset="100%"></stop>
        </linearGradient>
        <linearGradient x1="50%" y1="0%" x2="50%" y2="100%" id="linearGradient-4">
            <stop stop-color="#B4C4FF" offset="0%"></stop>
            <stop stop-color="#676BFD" offset="100%"></stop>
        </linearGradient>
        <linearGradient x1="50%" y1="0%" x2="50%" y2="100%" id="linearGradient-5">
            <stop stop-color="#B4C4FF" offset="0%"></stop>
            <stop stop-color="#676BFD" offset="100%"></stop>
        </linearGradient>
        <linearGradient x1="50%" y1="0%" x2="50%" y2="100%" id="linearGradient-6">
            <stop stop-color="#FFFFFF" stop-opacity="0.978611233" offset="0.103802448%"></stop>
            <stop stop-color="#6B8AFF" offset="100%"></stop>
        </linearGradient>
    </defs>
    <g id="Logo-G6VP-black" stroke="none" stroke-width="1" fill="none" fill-rule="evenodd">
        <g id="编组-3" transform="translate(5.500000, 5.600000)">
            <g id="图形-线"></g>
            <g id="图形-点"></g>
            <rect id="矩形" fill="url(#linearGradient-1)" fill-rule="nonzero" opacity="0.404410374" x="5.7" y="2.30011432" width="1" height="15" rx="0.5"></rect>
            <rect id="矩形备份" fill="url(#linearGradient-2)" fill-rule="nonzero" opacity="0.404410374" transform="translate(10.100000, 16.800114) rotate(-270.000000) translate(-10.100000, -16.800114) " x="9.7" y="12.4001143" width="1" height="8.8" rx="0.5"></rect>
            <rect id="矩形备份" fill="url(#linearGradient-3)" fill-rule="nonzero" opacity="0.404410374" transform="translate(4.025000, 13.343416) rotate(-30.000000) translate(-4.025000, -13.343416) " x="3.625" y="8.89341559" width="1" height="8.9" rx="0.5"></rect>
            <rect id="矩形备份" fill="url(#linearGradient-3)" fill-rule="nonzero" opacity="0.404410374" transform="translate(4.025000, 6.343416) rotate(-150.000000) translate(-4.025000, -6.343416) " x="3.625" y="1.89341559" width="1" height="8.9" rx="0.5"></rect>
            <rect id="矩形备份-3" fill="url(#linearGradient-3)" fill-rule="nonzero" opacity="0.404410374" transform="translate(16.125000, 13.343416) rotate(-150.000000) translate(-16.125000, -13.343416) " x="15.725" y="8.89341559" width="1" height="8.9" rx="0.5"></rect>
            <rect id="矩形备份" fill="url(#linearGradient-4)" fill-rule="nonzero" opacity="0.404410374" transform="translate(8.079775, 6.368416) rotate(-120.000000) translate(-8.079775, -6.368416) " x="7.67977494" y="-1.03158441" width="1" height="14.8" rx="0.5"></rect>
            <rect id="矩形备份" fill="url(#linearGradient-4)" fill-rule="nonzero" opacity="0.404410374" transform="translate(8.079775, 13.368416) rotate(-60.000000) translate(-8.079775, -13.368416) " x="7.67977494" y="5.96841559" width="1" height="14.8" rx="0.5"></rect>
            <rect id="矩形备份" fill="url(#linearGradient-4)" fill-rule="nonzero" opacity="0.404410374" transform="translate(12.079775, 13.268416) rotate(-300.000000) translate(-12.079775, -13.268416) " x="11.6797749" y="5.86841559" width="1" height="14.8" rx="0.5"></rect>
            <rect id="矩形备份-2" fill="url(#linearGradient-2)" fill-rule="nonzero" opacity="0.404410374" transform="translate(10.100000, 2.800000) rotate(-270.000000) translate(-10.100000, -2.800000) " x="9.7" y="-1.6" width="1" height="8.8" rx="0.5"></rect>
            <rect id="矩形备份-4" fill="url(#linearGradient-5)" fill-rule="nonzero" opacity="0.404410374" transform="translate(14.250000, 9.800000) rotate(-270.000000) translate(-14.250000, -9.800000) " x="13.85" y="5.65" width="1" height="8.3" rx="0.5"></rect>
            <path d="M5.98634884,0.800049966 C6.59234691,0.817190913 7.06683148,1.03840436 7.41421356,1.38578644 C7.77614237,1.74771525 8,2.24771525 8,2.8 C8,3.35228475 7.77614237,3.85228475 7.41421356,4.21421356 C7.05228475,4.57614237 6.55228475,4.8 6,4.8 C5.44771525,4.8 4.94771525,4.57614237 4.58578644,4.21421356 C4.22385763,3.85228475 4,3.35228475 4,2.8 C4,2.24771525 4.22385763,1.74771525 4.58578644,1.38578644 C4.94468048,1.02689239 5.43934039,0.803771881 5.98634884,0.800049966 Z" id="椭圆形备份-2" fill="#2957FF" fill-rule="nonzero"></path>
            <path d="M13.1001669,1.06823835 C13.5783797,0.79214208 14.1232303,0.736017842 14.6175517,0.868470865 C15.1118731,1.00092389 15.5556654,1.32195417 15.8317616,1.80016695 C16.1078579,2.27837972 16.1639822,2.82323026 16.0315291,3.31755167 C15.8990761,3.81187308 15.5780458,4.25566537 15.0998331,4.53176165 C14.6216203,4.80785792 14.0767697,4.86398216 13.5824483,4.73152914 C13.0881269,4.59907611 12.6443346,4.27804583 12.3682384,3.79983305 C12.0921421,3.32162028 12.0360178,2.77676974 12.1684709,2.28244833 C12.3009239,1.78812692 12.6219542,1.34433463 13.1001669,1.06823835 Z" id="椭圆形备份-2" fill="#2957FF" fill-rule="nonzero"></path>
            <path d="M17.6824483,7.86847086 C18.1767697,7.73601784 18.7216203,7.79214208 19.1998331,8.06823835 C19.6780458,8.34433463 19.9990761,8.78812692 20.1315291,9.28244833 C20.2639822,9.77676974 20.2078579,10.3216203 19.9317616,10.7998331 C19.6556654,11.2780458 19.2118731,11.5990761 18.7175517,11.7315291 C18.2232303,11.8639822 17.6783797,11.8078579 17.2001669,11.5317616 C16.7219542,11.2556654 16.4009239,10.8118731 16.2684709,10.3175517 C16.1360178,9.82323026 16.1921421,9.27837972 16.4682384,8.80016695 C16.7443346,8.32195417 17.1881269,8.00092389 17.6824483,7.86847086 Z" id="椭圆形备份-2" fill="#2957FF" fill-rule="nonzero"></path>
            <path d="M9.58244833,7.86847086 C10.0767697,7.73601784 10.6216203,7.79214208 11.0998331,8.06823835 C11.5780458,8.34433463 11.8990761,8.78812692 12.0315291,9.28244833 C12.1639822,9.77676974 12.1078579,10.3216203 11.8317616,10.7998331 C11.5556654,11.2780458 11.1118731,11.5990761 10.6175517,11.7315291 C10.1232303,11.8639822 9.57837972,11.8078579 9.10016695,11.5317616 C8.62195417,11.2556654 8.30092389,10.8118731 8.16847086,10.3175517 C8.03601784,9.82323026 8.09214208,9.27837972 8.36823835,8.80016695 C8.64433463,8.32195417 9.08812692,8.00092389 9.58244833,7.86847086 Z" id="椭圆形备份-3" fill="#20D291" fill-rule="nonzero"></path>
            <path d="M14.1,18.8 C13.5477153,18.8 13.0477153,18.5761424 12.6857864,18.2142136 C12.3238576,17.8522847 12.1,17.3522847 12.1,16.8 C12.1,16.2477153 12.3238576,15.7477153 12.6857864,15.3857864 C13.0477153,15.0238576 13.5477153,14.8 14.1,14.8 C14.6522847,14.8 15.1522847,15.0238576 15.5142136,15.3857864 C15.8761424,15.7477153 16.1,16.2477153 16.1,16.8 C16.1,17.3522847 15.8761424,17.8522847 15.5142136,18.2142136 C15.1522847,18.5761424 14.6522847,18.8 14.1,18.8 Z" id="椭圆形备份-2" fill="#2957FF" fill-rule="nonzero" transform="translate(14.100000, 16.800000) rotate(180.000000) translate(-14.100000, -16.800000) "></path>
            <path d="M5.00016695,15.0682384 C5.47837972,14.7921421 6.02323026,14.7360178 6.51755167,14.8684709 C7.01187308,15.0009239 7.45566537,15.3219542 7.73176165,15.8001669 C8.00785792,16.2783797 8.06398216,16.8232303 7.93152914,17.3175517 C7.79907611,17.8118731 7.47804583,18.2556654 6.99983305,18.5317616 C6.52162028,18.8078579 5.97676974,18.8639822 5.48244833,18.7315291 C4.98812692,18.5990761 4.54433463,18.2780458 4.26823835,17.7998331 C3.99214208,17.3216203 3.93601784,16.7767697 4.06847086,16.2824483 C4.20092389,15.7881269 4.52195417,15.3443346 5.00016695,15.0682384 Z" id="椭圆形备份-2" fill="#2957FF" fill-rule="nonzero"></path>
            <path d="M1.48244833,7.86847086 C1.97676974,7.73601784 2.52162028,7.79214208 2.99983305,8.06823835 C3.47804583,8.34433463 3.79907611,8.78812692 3.93152914,9.28244833 C4.06398216,9.77676974 4.00785792,10.3216203 3.73176165,10.7998331 C3.45566537,11.2780458 3.01187308,11.5990761 2.51755167,11.7315291 C2.02323026,11.8639822 1.47837972,11.8078579 1.00016695,11.5317616 C0.521954174,11.2556654 0.200923888,10.8118731 0.068470865,10.3175517 C-0.0639821584,9.82323026 -0.00785791991,9.27837972 0.268238354,8.80016695 C0.544334627,8.32195417 0.988126915,8.00092389 1.48244833,7.86847086 Z" id="椭圆形备份-2" fill="#2957FF" fill-rule="nonzero"></path>
        </g>
        <g id="编组-2" transform="translate(29.500000, 9.400000)" fill-rule="nonzero">
            <path d="M5.58730307,0.0748344371 C6.35527808,0.0748344371 7.08706457,0.229439345 7.75310785,0.509158682 L7.82282865,0.540832908 C7.90600713,0.557851124 7.98790277,0.58829813 8.06547463,0.632986975 C8.25940429,0.744709088 8.38959172,0.924289243 8.4433054,1.12431596 C8.49701908,1.32434269 8.47425902,1.54481597 8.36229368,1.73832435 C8.25032834,1.93183272 8.07035723,2.06173734 7.86989503,2.11533434 C7.68964752,2.1635266 7.4928332,2.15002506 7.31399338,2.0655945 L7.30512297,2.08299043 C6.78539405,1.83332812 6.2027215,1.69343089 5.58730307,1.69343089 C3.39739307,1.69343089 1.62212025,3.46484722 1.62212025,5.65 C1.62212025,7.83515278 3.39739307,9.60656911 5.58730307,9.60656911 C6.04739395,9.60656911 6.48918265,9.52837836 6.90005106,9.38458756 L6.923,6.45883444 L4.77624295,6.45929823 C4.6685616,6.4424584 4.56112122,6.4084938 4.46089838,6.35075581 C4.26696872,6.2390337 4.13678129,6.05945355 4.08306761,5.85942683 C4.02935393,5.6594001 4.05211399,5.43892682 4.16407933,5.24541844 C4.27604467,5.05191007 4.45601578,4.92200545 4.65647798,4.86840845 L4.776,4.84483444 L8.47107239,4.84070177 L8.47107239,10.4158673 C7.63223195,10.9324462 6.64402606,11.2251656 5.58730307,11.2251656 C2.50152079,11.2251656 0,8.72907892 0,5.65 C0,2.57092108 2.50152079,0.0748344371 5.58730307,0.0748344371 Z" id="形状结合" fill-opacity="0.85" fill="#FFFFFF"></path>
            <path d="M30.225,0.0748344371 C32.4203319,0.0748344371 34.2,1.84387303 34.2,4.02609272 C34.2,6.2083124 32.4203319,7.97735099 30.225,7.97735099 C29.346238,7.97735099 28.5340775,7.693899 27.8760026,7.21395657 L27.8761364,10.5815894 C27.8592181,10.6888926 27.8250953,10.7959557 27.7670883,10.8958266 C27.6548458,11.0890752 27.4744291,11.2188055 27.2734706,11.2723305 C27.0725121,11.3258556 26.8510118,11.3031754 26.656602,11.1916033 C26.4621922,11.0800311 26.3316824,10.900692 26.2778357,10.7009338 L26.254,10.5808344 L26.25,3.93629139 L26.2548647,3.82888508 C26.3582404,1.73828303 28.0961933,0.0748344371 30.225,0.0748344371 Z M30.225,1.69125828 C28.9277584,1.69125828 27.8761364,2.73659926 27.8761364,4.02609272 C27.8761364,5.31558617 28.9277584,6.36092715 30.225,6.36092715 C31.5222416,6.36092715 32.5738636,5.31558617 32.5738636,4.02609272 C32.5738636,2.73659926 31.5222416,1.69125828 30.225,1.69125828 Z" id="形状结合" fill-opacity="0.85" fill="#FFFFFF"></path>
            <path d="M14.4007844,0.258211286 C14.5951942,0.369933399 14.725704,0.549513554 14.7795506,0.749540276 C14.8333973,0.949566997 14.8105809,1.17004028 14.6983383,1.36354866 C14.6728499,1.40749119 14.643846,1.44815387 14.6118843,1.48538794 L13.5835689,3.4303581 C13.7765313,3.40170778 13.9740238,3.38686178 14.175,3.38686178 C16.3703319,3.38686178 18.15,5.15827811 18.15,7.34343089 C18.15,9.52858367 16.3703319,11.3 14.175,11.3 C11.9796681,11.3 10.2,9.52858367 10.2,7.34343089 C10.2,6.64632694 10.3811217,5.99133008 10.6990795,5.42252061 L10.6824528,5.41392617 L13.1847896,0.729536466 L13.2103732,0.74407192 C13.2283834,0.67915207 13.2548914,0.615427209 13.290298,0.554385543 C13.4025406,0.360877168 13.5829573,0.230972547 13.7839158,0.177375549 C13.9848743,0.123778551 14.2063746,0.146489174 14.4007844,0.258211286 Z M14.175,5.00545824 C12.8777584,5.00545824 11.8261364,6.05220425 11.8261364,7.34343089 C11.8261364,8.63465753 12.8777584,9.68140355 14.175,9.68140355 C15.4722416,9.68140355 16.5238636,8.63465753 16.5238636,7.34343089 C16.5238636,6.05220425 15.4722416,5.00545824 14.175,5.00545824 Z" id="形状结合" fill="url(#linearGradient-6)"></path>
            <path d="M24.7171292,0.177388608 C24.7946093,0.198164564 24.8661785,0.229370293 24.9309981,0.269131379 C24.9359769,0.271520099 24.9409075,0.274297217 24.9458207,0.277131751 C25.1390721,0.38862341 25.2688043,0.567833139 25.3223301,0.767447257 C25.3758559,0.967061376 25.3531755,1.18707988 25.2416017,1.3801891 L25.224,1.40467844 L22.7320736,10.7007029 C22.6330776,11.069889 22.2939203,11.3105545 21.9277576,11.2996336 C21.561005,11.3105545 21.2218476,11.069889 21.1228516,10.7007029 L18.6101088,1.33708511 C18.5858969,1.2884976 18.5666749,1.23766571 18.5526699,1.18543692 C18.4991441,0.985822803 18.5218245,0.765804295 18.6333983,0.572695077 C18.6533886,0.538096342 18.6755543,0.505535121 18.6996231,0.475084326 C18.8039591,0.334053807 18.9550195,0.226399459 19.1375088,0.177465581 C19.5690025,0.0619322317 20.0121822,0.31780212 20.1277973,0.748966008 L21.927,7.45967844 L23.727128,0.748966008 C23.8427431,0.31780212 24.2859228,0.0619322317 24.7171292,0.177388608 Z" id="形状结合" fill-opacity="0.85" fill="#FFFFFF"></path>
            <path d="M13.5838772,0.0384298398 C13.861933,-0.035910516 14.1684114,-0.0044103226 14.4374061,0.150550997 C14.7064008,0.305512316 14.8869803,0.554594411 14.9614851,0.832036396 C15.03599,1.10947838 15.0044201,1.41528026 14.8491159,1.68368113 C14.6938118,1.95208201 14.4441786,2.13226292 14.1661228,2.20660327 C13.888067,2.28094363 13.5815886,2.24944344 13.3125939,2.09448212 C13.0435992,1.9395208 12.8630197,1.6904387 12.7885149,1.41299672 C12.71401,1.13555473 12.7455799,0.829752857 12.9008841,0.561351979 C13.0561882,0.292951101 13.3058214,0.112770196 13.5838772,0.0384298398 Z" id="椭圆形备份-6" fill="#20D291"></path>
        </g>
    </g>
</svg>