<?xml version="1.0" encoding="UTF-8"?>
<svg width="126px" height="30px" viewBox="0 0 126 30" version="1.1" xmlns="http://www.w3.org/2000/svg" xmlns:xlink="http://www.w3.org/1999/xlink">
    <title>GI-logo-反白色</title>
    <defs>
        <linearGradient x1="50%" y1="0%" x2="50%" y2="99.2289937%" id="linearGradient-1">
            <stop stop-color="#6889FF" offset="0.128814057%"></stop>
            <stop stop-color="#D8D9FF" offset="100%"></stop>
        </linearGradient>
        <linearGradient x1="50%" y1="0%" x2="50%" y2="99.2289937%" id="linearGradient-2">
            <stop stop-color="#6889FF" offset="0.128814057%"></stop>
            <stop stop-color="#D8D9FF" offset="100%"></stop>
        </linearGradient>
        <linearGradient x1="50%" y1="0.127820892%" x2="50%" y2="99.2289937%" id="linearGradient-3">
            <stop stop-color="#6889FF" offset="0%"></stop>
            <stop stop-color="#D8D9FF" offset="100%"></stop>
        </linearGradient>
        <linearGradient x1="50%" y1="0%" x2="50%" y2="99.2289937%" id="linearGradient-4">
            <stop stop-color="#6889FF" offset="0.128814057%"></stop>
            <stop stop-color="#D8D9FF" offset="100%"></stop>
        </linearGradient>
        <linearGradient x1="50%" y1="0%" x2="50%" y2="99.2289937%" id="linearGradient-5">
            <stop stop-color="#6889FF" offset="0.128814057%"></stop>
            <stop stop-color="#D8D9FF" offset="100%"></stop>
        </linearGradient>
        <linearGradient x1="50%" y1="0%" x2="50%" y2="99.2289937%" id="linearGradient-6">
            <stop stop-color="#6889FF" offset="0.128814057%"></stop>
            <stop stop-color="#D8D9FF" offset="100%"></stop>
        </linearGradient>
    </defs>
    <g id="GI-logo-反白色" stroke="none" stroke-width="1" fill="none" fill-rule="evenodd">
        <rect id="矩形" x="0" y="0" width="126" height="30"></rect>
        <g id="编组-2" transform="translate(5.500000, 4.800000)" fill-rule="nonzero">
            <g id="编组-7" transform="translate(27.700000, 2.200000)">
                <path d="M4.63915416,12.3001755 C5.53590443,12.3001755 6.32183477,12.1697108 6.996945,11.9087814 C7.67205533,11.647852 8.19813184,11.2539729 8.57517462,10.727144 L8.57517462,10.727144 L8.57517462,6.74610694 L4.53979826,6.74610694 L4.53979826,7.90910653 L7.11540781,7.90910653 L7.11540781,10.3469326 C6.84536365,10.6302273 6.50398713,10.8315158 6.09127817,10.9507978 C5.67856922,11.0700798 5.19707554,11.1297208 4.64679687,11.1297208 C3.67361909,11.1297208 2.90170048,10.7706323 2.33104123,10.0524551 C1.76038189,9.33427804 1.47505231,8.36635422 1.47505231,7.14868372 L1.47505231,7.14868372 L1.47505231,6.26152375 C1.48014748,4.98421221 1.73617982,4.00883327 2.24314952,3.33538692 C2.75011913,2.66194057 3.49528803,2.3252174 4.47865624,2.3252174 C5.95625618,2.3252174 6.83262577,3.0433945 7.10776502,4.4797487 L7.10776502,4.4797487 L8.57517462,4.4797487 C8.41722424,3.41615078 7.98413461,2.59484443 7.27590574,2.01582968 C6.56767677,1.43681492 5.63271271,1.14730754 4.47101344,1.14730754 C3.05455561,1.14730754 1.95527222,1.59710012 1.17316337,2.49668528 C0.391054427,3.39627044 0,4.6636418 0,6.29879933 L0,6.29879933 L0,7.24560028 C0.0101903359,8.25452732 0.207628204,9.14168728 0.592313693,9.90708017 C0.976999181,10.6724731 1.52090882,11.2626705 2.22404262,11.6776726 C2.92717632,12.0926745 3.73221356,12.3001755 4.63915416,12.3001755 Z M11.9895222,12.151073 L11.9895222,6.42553648 C12.3207084,5.6551735 12.9499621,5.26999206 13.8772834,5.26999206 C14.1269469,5.26999206 14.3587772,5.2873873 14.5727744,5.32217788 L14.5727744,5.32217788 L14.5727744,4.03989629 C14.4301096,3.97031512 14.2212076,3.93552454 13.9460683,3.93552454 C13.0951746,3.93552454 12.4378974,4.2958556 11.9742366,5.01651776 L11.9742366,5.01651776 L11.9513084,4.08462705 L10.5756119,4.08462705 L10.5756119,12.151073 L11.9895222,12.151073 Z M17.8954089,12.3001755 C18.8074448,12.3001755 19.5921012,11.9671799 20.2493784,11.3011887 C20.3003301,11.7087355 20.3665674,11.9920303 20.4480902,12.151073 L20.4480902,12.151073 L21.9307852,12.151073 L21.9307852,12.031791 C21.7371687,11.5944236 21.6403604,11.0054687 21.6403604,10.2649262 L21.6403604,10.2649262 L21.6403604,6.55227363 C21.6199798,5.73717991 21.3397453,5.09728161 20.799657,4.63257878 C20.2595688,4.16787595 19.5131261,3.93552454 18.5603289,3.93552454 C17.9590985,3.93552454 17.4075462,4.04486638 16.9056718,4.26355006 C16.4037973,4.48223374 16.0063739,4.77919625 15.7134015,5.15443758 C15.4204291,5.52967889 15.2739429,5.91858797 15.2739429,6.32116475 L15.2739429,6.32116475 L16.6954959,6.32116475 C16.6954959,5.96828879 16.8661842,5.66759875 17.2075607,5.41909453 C17.5489372,5.17059035 17.9718365,5.04633825 18.4762586,5.04633825 C19.052013,5.04633825 19.4876503,5.18922817 19.7831702,5.47500799 C20.0786902,5.76078778 20.2264501,6.14472677 20.2264501,6.62682487 L20.2264501,6.62682487 L20.2264501,7.26051053 L18.8507537,7.26051053 C17.6635786,7.26051053 16.7426262,7.49286196 16.0878966,7.95756481 C15.433167,8.42226767 15.1058022,9.07459112 15.1058022,9.91453534 C15.1058022,10.6053769 15.3669298,11.175694 15.8891849,11.6254867 C16.41144,12.0752793 17.0801814,12.3001755 17.8954089,12.3001755 Z M18.1017634,11.0999003 C17.6381027,11.0999003 17.2585124,10.9781332 16.9629925,10.7345991 C16.6674725,10.491065 16.5197125,10.1530993 16.5197125,9.72070203 C16.5197125,8.73165533 17.3858918,8.23713207 19.1182503,8.23713207 L19.1182503,8.23713207 L20.2264501,8.23713207 L20.2264501,9.89216993 C20.0481192,10.250016 19.760242,10.5407658 19.3628185,10.7644196 C18.9653951,10.9880734 18.5450434,11.0999003 18.1017634,11.0999003 Z M25.0470652,15.2524053 L25.0470652,11.3682848 C25.6228197,11.9895453 26.4125714,12.3001755 27.4163203,12.3001755 C28.3996885,12.3001755 29.1792498,11.9249341 29.7550042,11.1744515 C30.3307587,10.4239689 30.6186359,9.43492224 30.6186359,8.20731149 L30.6186359,8.20731149 L30.6186359,8.08057442 C30.6186359,6.77841243 30.329485,5.76203032 29.7511829,5.031428 C29.1728809,4.30082569 28.3869505,3.93552454 27.393392,3.93552454 C26.3692624,3.93552454 25.5693204,4.2834304 24.9935659,4.97924213 L24.9935659,4.97924213 L24.9247811,4.08462705 L23.633155,4.08462705 L23.633155,15.2524053 L25.0470652,15.2524053 Z M26.9883258,11.1744515 C26.1170514,11.1744515 25.4699645,10.8066653 25.0470652,10.0710929 L25.0470652,10.0710929 L25.0470652,6.21679301 C25.4750597,5.47625053 26.1170514,5.10597926 26.9730403,5.10597926 C27.6659837,5.10597926 28.2111671,5.36939371 28.6085905,5.89622255 C29.006014,6.42305148 29.2047256,7.14122855 29.2047256,8.05075393 C29.2047256,9.08453129 29.0047401,9.86359197 28.6047691,10.3879358 C28.2047982,10.9122796 27.6659837,11.1744515 26.9883258,11.1744515 Z M33.6049891,12.151073 L33.6049891,6.40317115 C33.7986056,6.01550462 34.0686497,5.70238933 34.4151214,5.46382528 C34.7615932,5.22526131 35.1641117,5.10597926 35.6226772,5.10597926 C36.1882413,5.10597926 36.6047716,5.24514164 36.8722681,5.52346627 C37.1397647,5.80179098 37.2760605,6.23170326 37.2811557,6.81320301 L37.2811557,6.81320301 L37.2811557,12.151073 L38.695066,12.151073 L38.695066,6.82065818 C38.6797805,4.89723574 37.7983157,3.93552454 36.0506716,3.93552454 C35.0469228,3.93552454 34.2316953,4.31076586 33.6049891,5.06124851 L33.6049891,5.06124851 L33.6049891,0.7 L32.1910788,0.7 L32.1910788,12.151073 L33.6049891,12.151073 Z M42.3845529,12.151073 L42.3845529,1.29641005 L40.9171433,1.29641005 L40.9171433,12.151073 L42.3845529,12.151073 Z M46.035826,12.151073 L46.035826,6.40317115 C46.2294426,6.01550462 46.4994866,5.70238933 46.8459583,5.46382528 C47.19243,5.22526131 47.5949486,5.10597926 48.0535141,5.10597926 C48.6190783,5.10597926 49.0356085,5.24514164 49.3031051,5.52346627 C49.5706016,5.80179098 49.7068975,6.23170326 49.7119926,6.81320301 L49.7119926,6.81320301 L49.7119926,12.151073 L51.1259029,12.151073 L51.1259029,6.82065818 C51.1106173,4.89723574 50.2291526,3.93552454 48.4815085,3.93552454 C47.4624742,3.93552454 46.6370563,4.32319107 46.0052549,5.09852414 L46.0052549,5.09852414 L45.9593984,4.08462705 L44.6219157,4.08462705 L44.6219157,12.151073 L46.035826,12.151073 Z M56.0764449,12.3001755 C57.0190517,12.3001755 57.7858751,12.0827343 58.3769151,11.647852 C58.967955,11.2129697 59.263475,10.6351974 59.263475,9.91453534 C59.263475,9.48213798 59.1577502,9.11559432 58.9463006,8.81490428 C58.7348509,8.51421424 58.4100337,8.2570124 57.9718489,8.04329876 C57.5336641,7.82958512 56.961731,7.64569207 56.2560497,7.4916195 C55.5503683,7.33754686 55.0625056,7.17601913 54.7924615,7.00703632 C54.5224174,6.83805342 54.3873953,6.58706421 54.3873953,6.25406859 C54.3873953,5.90119263 54.5326077,5.61541284 54.8230326,5.39672912 C55.1134573,5.17804548 55.5159759,5.06870363 56.0305883,5.06870363 C56.5299152,5.06870363 56.9438979,5.20538094 57.2725365,5.47873553 C57.6011751,5.75209016 57.7654944,6.07763061 57.7654944,6.45535698 L57.7654944,6.45535698 L59.1870474,6.45535698 C59.1870474,5.71978458 58.8953488,5.11591943 58.3119516,4.64376147 C57.7285544,4.17160351 56.9680999,3.93552454 56.0305883,3.93552454 C55.1389332,3.93552454 54.4065022,4.16414839 53.8332953,4.62139609 C53.2600885,5.0786438 52.9734851,5.63777826 52.9734851,6.29879933 C52.9734851,6.69640603 53.0741147,7.03934181 53.275374,7.32760669 C53.4766333,7.61587157 53.7874388,7.86437579 54.2077905,8.07311926 C54.6281422,8.28186281 55.1962539,8.46078579 55.9121255,8.60988835 C56.6279972,8.75899083 57.1298717,8.93667135 57.4177489,9.14292982 C57.7056261,9.34918829 57.8495647,9.63869563 57.8495647,10.0114519 C57.8495647,10.3643279 57.687793,10.6463801 57.3642496,10.8576087 C57.0407062,11.0688372 56.6114379,11.1744515 56.0764449,11.1744515 C55.4955953,11.1744515 55.0281132,11.0390167 54.6739987,10.7681472 C54.3198843,10.4972776 54.1300891,10.130734 54.1046133,9.66851612 L54.1046133,9.66851612 L52.690703,9.66851612 C52.690703,10.1456442 52.8346416,10.5892242 53.1225188,10.9992561 C53.410396,11.409288 53.8090933,11.7286158 54.3186105,11.9572397 C54.8281277,12.1858636 55.4140725,12.3001755 56.0764449,12.3001755 Z M62.417969,12.151073 L62.417969,4.08462705 L61.0040588,4.08462705 L61.0040588,12.151073 L62.417969,12.151073 Z M67.597794,15.3269565 C68.6677792,15.3269565 69.5199475,15.0262665 70.154296,14.4248863 C70.7886454,13.8235062 71.1058197,13.0009573 71.1058197,11.9572397 L71.1058197,11.9572397 L71.1058197,4.08462705 L69.8141934,4.08462705 L69.7454082,4.97924213 C69.1798448,4.2834304 68.3926404,3.93552454 67.3837966,3.93552454 C66.4004282,3.93552454 65.6106767,4.30703829 65.0145413,5.05006582 C64.4184058,5.79309336 64.1203385,6.79332268 64.1203385,8.05075393 C64.1203385,9.362856 64.4196802,10.3991184 65.0183627,11.1595413 C65.6170451,11.9199641 66.4004282,12.3001755 67.368511,12.3001755 C68.3467836,12.3001755 69.1187024,11.9820901 69.6842667,11.3459194 L69.6842667,11.3459194 L69.6842667,12.0392461 C69.6842667,12.7251177 69.4919242,13.2569166 69.1072383,13.634643 C68.7225532,14.0123694 68.1862857,14.2012326 67.4984376,14.2012326 C66.6220684,14.2012326 65.8807207,13.8359314 65.2743955,13.1053291 L65.2743955,13.1053291 L64.5406906,13.932848 C64.8413057,14.3652453 65.2769425,14.705696 65.8476016,14.9542002 C66.4182608,15.2027045 67.0016585,15.3269565 67.597794,15.3269565 Z M67.7200778,11.1297208 C67.0322297,11.1297208 66.4972366,10.8700339 66.1150986,10.3506602 C65.7329606,9.83128639 65.5418916,9.11683687 65.5418916,8.20731149 C65.5418916,7.1834743 65.7355085,6.41062623 66.1227414,5.88876747 C66.5099743,5.36690862 67.0475153,5.10597926 67.7353634,5.10597926 C68.6015429,5.10597926 69.251177,5.49116078 69.6842667,6.26152375 L69.6842667,6.26152375 L69.6842667,9.94435584 C69.2664626,10.7345991 68.6117327,11.1297208 67.7200778,11.1297208 Z M74.428454,12.151073 L74.428454,6.40317115 C74.6220709,6.01550462 74.8921149,5.70238933 75.238586,5.46382528 C75.5850579,5.22526131 75.9875765,5.10597926 76.4461425,5.10597926 C77.0117059,5.10597926 77.4282365,5.24514164 77.6957335,5.52346627 C77.9632296,5.80179098 78.0995255,6.23170326 78.1046204,6.81320301 L78.1046204,6.81320301 L78.1046204,12.151073 L79.5185306,12.151073 L79.5185306,6.82065818 C79.503245,4.89723574 78.6217809,3.93552454 76.8741364,3.93552454 C75.8703875,3.93552454 75.0551598,4.31076586 74.428454,5.06124851 L74.428454,5.06124851 L74.428454,0.7 L73.0145438,0.7 L73.0145438,12.151073 L74.428454,12.151073 Z M83.8270812,12.3001755 C84.1786481,12.3001755 84.5404056,12.2504747 84.9123529,12.151073 L84.9123529,12.151073 L84.9123529,11.0328042 C84.6270234,11.0924452 84.4028353,11.1222657 84.2397904,11.1222657 C83.9086041,11.1222657 83.6742262,11.0415018 83.5366567,10.8799741 C83.3990864,10.7184464 83.3303021,10.4761548 83.3303021,10.1530993 L83.3303021,10.1530993 L83.3303021,5.15071001 L84.874139,5.15071001 L84.874139,4.08462705 L83.3303021,4.08462705 L83.3303021,2.13138412 L81.9163919,2.13138412 L81.9163919,4.08462705 L80.4107681,4.08462705 L80.4107681,5.15071001 L81.9163919,5.15071001 L81.9163919,10.1530993 C81.9163919,10.8389709 82.0768897,11.3682848 82.3978854,11.7410411 C82.7188811,12.1137974 83.1952797,12.3001755 83.8270812,12.3001755 Z" id="GraphInsight" fill-opacity="0.95" fill="#FFFFFF"></path>
                <path d="M61.8,3 C62.6284271,3 63.3,2.32842712 63.3,1.5 C63.3,0.671572875 62.6284271,0 61.8,0 C60.9715729,0 60.3,0.671572875 60.3,1.5 C60.3,2.32842712 60.9715729,3 61.8,3 Z" id="椭圆形备份-10" fill="#20D291"></path>
            </g>
            <g id="编组">
                <polygon id="矩形备份-16" fill="url(#linearGradient-1)" opacity="0.652381534" transform="translate(11.193907, 2.689474) rotate(90.000000) translate(-11.193907, -2.689474) " points="10.7313085 -0.808495457 11.6303519 -0.805733976 11.6565064 6.18744283 10.7574629 6.18468134"></polygon>
                <polygon id="矩形备份-16" fill="url(#linearGradient-2)" opacity="0.652381534" transform="translate(8.945213, 6.668421) rotate(60.000000) translate(-8.945213, -6.668421) " points="8.5370251 -0.065948416 9.43730002 -0.0707339424 9.35340085 13.4027905 8.45312593 13.407576"></polygon>
                <polygon id="矩形备份-16" fill="url(#linearGradient-3)" opacity="0.652381534" transform="translate(8.945213, 14.501974) rotate(120.000000) translate(-8.945213, -14.501974) " points="8.43382528 7.88756 9.32454353 7.89501462 9.45660067 21.1163874 8.5658824 21.1089327"></polygon>
                <polygon id="矩形备份-16" fill="url(#linearGradient-2)" opacity="0.652381534" transform="translate(13.442602, 14.377632) rotate(60.000000) translate(-13.442602, -14.377632) " points="13.034414 7.64326211 13.9346889 7.63847658 13.8507898 21.1120011 12.9505148 21.1167866"></polygon>
                <polygon id="矩形备份-16" fill="url(#linearGradient-4)" opacity="0.652381534" points="6.1979514 3.98961918 7.10152838 3.98695652 7.05028388 17.13212 6.14670691 17.1347826"></polygon>
                <polygon id="矩形备份-16" fill="url(#linearGradient-5)" opacity="0.652381534" transform="translate(4.197969, 6.668421) rotate(-150.000000) translate(-4.197969, -6.668421) " points="3.77885097 3.18933866 4.68691357 3.18176577 4.61708731 10.1475034 3.70902471 10.1550763"></polygon>
                <polygon id="矩形备份-16" fill="url(#linearGradient-6)" opacity="0.652381534" transform="translate(4.197969, 14.501974) rotate(-30.000000) translate(-4.197969, -14.501974) " points="3.72006204 11.1398288 4.63344878 11.144622 4.67587625 17.8641186 3.76248951 17.8593255"></polygon>
                <polygon id="矩形备份-16" fill="url(#linearGradient-1)" opacity="0.652381534" transform="translate(11.193907, 18.605263) rotate(-90.000000) translate(-11.193907, -18.605263) " points="10.7313085 15.107294 11.6303519 15.1100555 11.6565063 22.1032323 10.757463 22.1004709"></polygon>
                <polygon id="矩形备份-16" fill="url(#linearGradient-5)" opacity="0.652381534" transform="translate(18.189846, 14.626316) rotate(-150.000000) translate(-18.189846, -14.626316) " points="17.7707275 11.1472334 18.6787901 11.1396605 18.6089639 18.1053982 17.7009013 18.1129711"></polygon>
                <polygon id="矩形备份-16" fill="url(#linearGradient-1)" opacity="0.652381534" transform="translate(15.941151, 10.647368) rotate(-90.000000) translate(-15.941151, -10.647368) " points="15.4785523 7.14939928 16.3775958 7.15216076 16.4037502 14.1453376 15.5047067 14.142576"></polygon>
                <circle id="椭圆形备份-9" fill="#14B67B" cx="11.8216176" cy="10.3243478" r="2.4"></circle>
                <circle id="椭圆形备份-8" fill="#4D73FF" cx="15.5647059" cy="2.4" r="2.4"></circle>
                <circle id="椭圆形" fill="#4D73FF" cx="6.84308824" cy="2.4" r="2.4"></circle>
                <circle id="椭圆形备份" fill="#4D73FF" cx="2.4" cy="10.2886957" r="2.4"></circle>
                <circle id="椭圆形备份-6" fill="#4D73FF" cx="6.84308824" cy="18.0130435" r="2.4"></circle>
                <circle id="椭圆形备份-2" fill="#4D73FF" cx="15.5647059" cy="18.0130435" r="2.4"></circle>
                <circle id="椭圆形备份-5" fill="#4D73FF" cx="19.8432353" cy="10.2886957" r="2.4"></circle>
            </g>
        </g>
    </g>
</svg>