<?xml version="1.0" encoding="UTF-8"?>
<svg width="126px" height="30px" viewBox="0 0 126 30" version="1.1" xmlns="http://www.w3.org/2000/svg" xmlns:xlink="http://www.w3.org/1999/xlink">
    <title>GI-Logo-基础色</title>
    <defs>
        <linearGradient x1="50%" y1="0%" x2="50%" y2="100%" id="linearGradient-1">
            <stop stop-color="#0439FF" offset="0%"></stop>
            <stop stop-color="#676BFD" offset="100%"></stop>
        </linearGradient>
        <linearGradient x1="50%" y1="0%" x2="50%" y2="100%" id="linearGradient-2">
            <stop stop-color="#0439FF" offset="0%"></stop>
            <stop stop-color="#676BFD" offset="100%"></stop>
        </linearGradient>
        <linearGradient x1="50%" y1="0%" x2="50%" y2="100%" id="linearGradient-3">
            <stop stop-color="#0439FF" offset="0%"></stop>
            <stop stop-color="#676BFD" offset="100%"></stop>
        </linearGradient>
        <linearGradient x1="50%" y1="0%" x2="50%" y2="100%" id="linearGradient-4">
            <stop stop-color="#0439FF" offset="0%"></stop>
            <stop stop-color="#676BFD" offset="100%"></stop>
        </linearGradient>
        <linearGradient x1="50%" y1="0%" x2="50%" y2="100%" id="linearGradient-5">
            <stop stop-color="#0439FF" offset="0%"></stop>
            <stop stop-color="#676BFD" offset="100%"></stop>
        </linearGradient>
        <linearGradient x1="50%" y1="0%" x2="50%" y2="100%" id="linearGradient-6">
            <stop stop-color="#0439FF" offset="0%"></stop>
            <stop stop-color="#676BFD" offset="100%"></stop>
        </linearGradient>
    </defs>
    <g id="GI-Logo-基础色" stroke="none" stroke-width="1" fill="none" fill-rule="evenodd">
        <rect id="矩形" x="0" y="0" width="126" height="30"></rect>
        <g id="编组" transform="translate(5.500000, 4.800000)" fill-rule="nonzero">
            <polygon id="矩形备份-16" fill="url(#linearGradient-1)" opacity="0.492271208" transform="translate(11.193907, 2.689474) rotate(90.000000) translate(-11.193907, -2.689474) " points="10.7313085 -0.808495457 11.6303519 -0.805733976 11.6565064 6.18744283 10.7574629 6.18468134"></polygon>
            <polygon id="矩形备份-16" fill="url(#linearGradient-2)" opacity="0.492271208" transform="translate(8.945213, 6.668421) rotate(60.000000) translate(-8.945213, -6.668421) " points="8.5370251 -0.065948416 9.43730002 -0.0707339424 9.35340085 13.4027905 8.45312593 13.407576"></polygon>
            <polygon id="矩形备份-16" fill="url(#linearGradient-3)" opacity="0.492271208" transform="translate(8.945213, 14.501974) rotate(120.000000) translate(-8.945213, -14.501974) " points="8.43382528 7.88756 9.32454353 7.89501462 9.45660067 21.1163874 8.5658824 21.1089327"></polygon>
            <polygon id="矩形备份-16" fill="url(#linearGradient-2)" opacity="0.492271208" transform="translate(13.442602, 14.377632) rotate(60.000000) translate(-13.442602, -14.377632) " points="13.034414 7.64326211 13.9346889 7.63847658 13.8507898 21.1120011 12.9505148 21.1167866"></polygon>
            <polygon id="矩形备份-16" fill="url(#linearGradient-4)" opacity="0.492271208" points="6.1979514 3.98961918 7.10152838 3.98695652 7.05028388 17.13212 6.14670691 17.1347826"></polygon>
            <polygon id="矩形备份-16" fill="url(#linearGradient-5)" opacity="0.492271208" transform="translate(4.197969, 6.668421) rotate(-150.000000) translate(-4.197969, -6.668421) " points="3.77885097 3.18933866 4.68691357 3.18176577 4.61708731 10.1475034 3.70902471 10.1550763"></polygon>
            <polygon id="矩形备份-16" fill="url(#linearGradient-6)" opacity="0.492271208" transform="translate(4.197969, 14.501974) rotate(-30.000000) translate(-4.197969, -14.501974) " points="3.72006204 11.1398288 4.63344878 11.144622 4.67587625 17.8641186 3.76248951 17.8593255"></polygon>
            <polygon id="矩形备份-16" fill="url(#linearGradient-1)" opacity="0.492271208" transform="translate(11.193907, 18.605263) rotate(-90.000000) translate(-11.193907, -18.605263) " points="10.7313085 15.107294 11.6303519 15.1100555 11.6565063 22.1032323 10.757463 22.1004709"></polygon>
            <polygon id="矩形备份-16" fill="url(#linearGradient-5)" opacity="0.492271208" transform="translate(18.189846, 14.626316) rotate(-150.000000) translate(-18.189846, -14.626316) " points="17.7707275 11.1472334 18.6787901 11.1396605 18.6089639 18.1053982 17.7009013 18.1129711"></polygon>
            <polygon id="矩形备份-16" fill="url(#linearGradient-1)" opacity="0.492271208" transform="translate(15.941151, 10.647368) rotate(-90.000000) translate(-15.941151, -10.647368) " points="15.4785523 7.14939928 16.3775958 7.15216076 16.4037502 14.1453376 15.5047067 14.142576"></polygon>
            <circle id="椭圆形备份-9" fill="#20D291" cx="11.8216176" cy="10.3243478" r="2.4"></circle>
            <circle id="椭圆形备份-8" fill="#0037FF" cx="15.5647059" cy="2.4" r="2.4"></circle>
            <circle id="椭圆形" fill="#0037FF" cx="6.84308824" cy="2.4" r="2.4"></circle>
            <circle id="椭圆形备份" fill="#0037FF" cx="2.4" cy="10.2886957" r="2.4"></circle>
            <circle id="椭圆形备份-6" fill="#0037FF" cx="6.84308824" cy="18.0130435" r="2.4"></circle>
            <circle id="椭圆形备份-2" fill="#0037FF" cx="15.5647059" cy="18.0130435" r="2.4"></circle>
            <circle id="椭圆形备份-5" fill="#0037FF" cx="19.8432353" cy="10.2886957" r="2.4"></circle>
        </g>
        <path d="M37.8391542,19.3001755 C38.7359044,19.3001755 39.5218348,19.1697108 40.196945,18.9087814 C40.8720553,18.647852 41.3981318,18.2539729 41.7751746,17.727144 L41.7751746,17.727144 L41.7751746,13.7461069 L37.7397983,13.7461069 L37.7397983,14.9091065 L40.3154078,14.9091065 L40.3154078,17.3469326 C40.0453636,17.6302273 39.7039871,17.8315158 39.2912782,17.9507978 C38.8785692,18.0700798 38.3970755,18.1297208 37.8467969,18.1297208 C36.8736191,18.1297208 36.1017005,17.7706323 35.5310412,17.0524551 C34.9603819,16.334278 34.6750523,15.3663542 34.6750523,14.1486837 L34.6750523,14.1486837 L34.6750523,13.2615238 C34.6801475,11.9842122 34.9361798,11.0088333 35.4431495,10.3353869 C35.9501191,9.66194057 36.695288,9.3252174 37.6786562,9.3252174 C39.1562562,9.3252174 40.0326258,10.0433945 40.307765,11.4797487 L40.307765,11.4797487 L41.7751746,11.4797487 C41.6172242,10.4161508 41.1841346,9.59484443 40.4759057,9.01582968 C39.7676768,8.43681492 38.8327127,8.14730754 37.6710134,8.14730754 C36.2545556,8.14730754 35.1552722,8.59710012 34.3731634,9.49668528 C33.5910544,10.3962704 33.2,11.6636418 33.2,13.2987993 L33.2,13.2987993 L33.2,14.2456003 C33.2101903,15.2545273 33.4076282,16.1416873 33.7923137,16.9070802 C34.1769992,17.6724731 34.7209088,18.2626705 35.4240426,18.6776726 C36.1271763,19.0926745 36.9322136,19.3001755 37.8391542,19.3001755 Z M45.1895222,19.151073 L45.1895222,13.4255365 C45.5207084,12.6551735 46.1499621,12.2699921 47.0772834,12.2699921 C47.3269469,12.2699921 47.5587772,12.2873873 47.7727744,12.3221779 L47.7727744,12.3221779 L47.7727744,11.0398963 C47.6301096,10.9703151 47.4212076,10.9355245 47.1460683,10.9355245 C46.2951746,10.9355245 45.6378974,11.2958556 45.1742366,12.0165178 L45.1742366,12.0165178 L45.1513084,11.084627 L43.7756119,11.084627 L43.7756119,19.151073 L45.1895222,19.151073 Z M51.0954089,19.3001755 C52.0074448,19.3001755 52.7921012,18.9671799 53.4493784,18.3011887 C53.5003301,18.7087355 53.5665674,18.9920303 53.6480902,19.151073 L53.6480902,19.151073 L55.1307852,19.151073 L55.1307852,19.031791 C54.9371687,18.5944236 54.8403604,18.0054687 54.8403604,17.2649262 L54.8403604,17.2649262 L54.8403604,13.5522736 C54.8199798,12.7371799 54.5397453,12.0972816 53.999657,11.6325788 C53.4595688,11.1678759 52.7131261,10.9355245 51.7603289,10.9355245 C51.1590985,10.9355245 50.6075462,11.0448664 50.1056718,11.2635501 C49.6037973,11.4822337 49.2063739,11.7791963 48.9134015,12.1544376 C48.6204291,12.5296789 48.4739429,12.918588 48.4739429,13.3211647 L48.4739429,13.3211647 L49.8954959,13.3211647 C49.8954959,12.9682888 50.0661842,12.6675988 50.4075607,12.4190945 C50.7489372,12.1705904 51.1718365,12.0463383 51.6762586,12.0463383 C52.252013,12.0463383 52.6876503,12.1892282 52.9831702,12.475008 C53.2786902,12.7607878 53.4264501,13.1447268 53.4264501,13.6268249 L53.4264501,13.6268249 L53.4264501,14.2605105 L52.0507537,14.2605105 C50.8635786,14.2605105 49.9426262,14.492862 49.2878966,14.9575648 C48.633167,15.4222677 48.3058022,16.0745911 48.3058022,16.9145353 C48.3058022,17.6053769 48.5669298,18.175694 49.0891849,18.6254867 C49.61144,19.0752793 50.2801814,19.3001755 51.0954089,19.3001755 Z M51.3017634,18.0999003 C50.8381027,18.0999003 50.4585124,17.9781332 50.1629925,17.7345991 C49.8674725,17.491065 49.7197125,17.1530993 49.7197125,16.720702 C49.7197125,15.7316553 50.5858918,15.2371321 52.3182503,15.2371321 L52.3182503,15.2371321 L53.4264501,15.2371321 L53.4264501,16.8921699 C53.2481192,17.250016 52.960242,17.5407658 52.5628185,17.7644196 C52.1653951,17.9880734 51.7450434,18.0999003 51.3017634,18.0999003 Z M58.2470652,22.2524053 L58.2470652,18.3682848 C58.8228197,18.9895453 59.6125714,19.3001755 60.6163203,19.3001755 C61.5996885,19.3001755 62.3792498,18.9249341 62.9550042,18.1744515 C63.5307587,17.4239689 63.8186359,16.4349222 63.8186359,15.2073115 L63.8186359,15.2073115 L63.8186359,15.0805744 C63.8186359,13.7784124 63.529485,12.7620303 62.9511829,12.031428 C62.3728809,11.3008257 61.5869505,10.9355245 60.593392,10.9355245 C59.5692624,10.9355245 58.7693204,11.2834304 58.1935659,11.9792421 L58.1935659,11.9792421 L58.1247811,11.084627 L56.833155,11.084627 L56.833155,22.2524053 L58.2470652,22.2524053 Z M60.1883258,18.1744515 C59.3170514,18.1744515 58.6699645,17.8066653 58.2470652,17.0710929 L58.2470652,17.0710929 L58.2470652,13.216793 C58.6750597,12.4762505 59.3170514,12.1059793 60.1730403,12.1059793 C60.8659837,12.1059793 61.4111671,12.3693937 61.8085905,12.8962226 C62.206014,13.4230515 62.4047256,14.1412285 62.4047256,15.0507539 C62.4047256,16.0845313 62.2047401,16.863592 61.8047691,17.3879358 C61.4047982,17.9122796 60.8659837,18.1744515 60.1883258,18.1744515 Z M66.8049891,19.151073 L66.8049891,13.4031712 C66.9986056,13.0155046 67.2686497,12.7023893 67.6151214,12.4638253 C67.9615932,12.2252613 68.3641117,12.1059793 68.8226772,12.1059793 C69.3882413,12.1059793 69.8047716,12.2451416 70.0722681,12.5234663 C70.3397647,12.801791 70.4760605,13.2317033 70.4811557,13.813203 L70.4811557,13.813203 L70.4811557,19.151073 L71.895066,19.151073 L71.895066,13.8206582 C71.8797805,11.8972357 70.9983157,10.9355245 69.2506716,10.9355245 C68.2469228,10.9355245 67.4316953,11.3107659 66.8049891,12.0612485 L66.8049891,12.0612485 L66.8049891,7.7 L65.3910788,7.7 L65.3910788,19.151073 L66.8049891,19.151073 Z M75.5845529,19.151073 L75.5845529,8.29641005 L74.1171433,8.29641005 L74.1171433,19.151073 L75.5845529,19.151073 Z M79.235826,19.151073 L79.235826,13.4031712 C79.4294426,13.0155046 79.6994866,12.7023893 80.0459583,12.4638253 C80.39243,12.2252613 80.7949486,12.1059793 81.2535141,12.1059793 C81.8190783,12.1059793 82.2356085,12.2451416 82.5031051,12.5234663 C82.7706016,12.801791 82.9068975,13.2317033 82.9119926,13.813203 L82.9119926,13.813203 L82.9119926,19.151073 L84.3259029,19.151073 L84.3259029,13.8206582 C84.3106173,11.8972357 83.4291526,10.9355245 81.6815085,10.9355245 C80.6624742,10.9355245 79.8370563,11.3231911 79.2052549,12.0985241 L79.2052549,12.0985241 L79.1593984,11.084627 L77.8219157,11.084627 L77.8219157,19.151073 L79.235826,19.151073 Z M89.2764449,19.3001755 C90.2190517,19.3001755 90.9858751,19.0827343 91.5769151,18.647852 C92.167955,18.2129697 92.463475,17.6351974 92.463475,16.9145353 C92.463475,16.482138 92.3577502,16.1155943 92.1463006,15.8149043 C91.9348509,15.5142142 91.6100337,15.2570124 91.1718489,15.0432988 C90.7336641,14.8295851 90.161731,14.6456921 89.4560497,14.4916195 C88.7503683,14.3375469 88.2625056,14.1760191 87.9924615,14.0070363 C87.7224174,13.8380534 87.5873953,13.5870642 87.5873953,13.2540686 C87.5873953,12.9011926 87.7326077,12.6154128 88.0230326,12.3967291 C88.3134573,12.1780455 88.7159759,12.0687036 89.2305883,12.0687036 C89.7299152,12.0687036 90.1438979,12.2053809 90.4725365,12.4787355 C90.8011751,12.7520902 90.9654944,13.0776306 90.9654944,13.455357 L90.9654944,13.455357 L92.3870474,13.455357 C92.3870474,12.7197846 92.0953488,12.1159194 91.5119516,11.6437615 C90.9285544,11.1716035 90.1680999,10.9355245 89.2305883,10.9355245 C88.3389332,10.9355245 87.6065022,11.1641484 87.0332953,11.6213961 C86.4600885,12.0786438 86.1734851,12.6377783 86.1734851,13.2987993 C86.1734851,13.696406 86.2741147,14.0393418 86.475374,14.3276067 C86.6766333,14.6158716 86.9874388,14.8643758 87.4077905,15.0731193 C87.8281422,15.2818628 88.3962539,15.4607858 89.1121255,15.6098884 C89.8279972,15.7589908 90.3298717,15.9366713 90.6177489,16.1429298 C90.9056261,16.3491883 91.0495647,16.6386956 91.0495647,17.0114519 C91.0495647,17.3643279 90.887793,17.6463801 90.5642496,17.8576087 C90.2407062,18.0688372 89.8114379,18.1744515 89.2764449,18.1744515 C88.6955953,18.1744515 88.2281132,18.0390167 87.8739987,17.7681472 C87.5198843,17.4972776 87.3300891,17.130734 87.3046133,16.6685161 L87.3046133,16.6685161 L85.890703,16.6685161 C85.890703,17.1456442 86.0346416,17.5892242 86.3225188,17.9992561 C86.610396,18.409288 87.0090933,18.7286158 87.5186105,18.9572397 C88.0281277,19.1858636 88.6140725,19.3001755 89.2764449,19.3001755 Z M95.617969,19.151073 L95.617969,11.084627 L94.2040588,11.084627 L94.2040588,19.151073 L95.617969,19.151073 Z M100.797794,22.3269565 C101.867779,22.3269565 102.719947,22.0262665 103.354296,21.4248863 C103.988645,20.8235062 104.30582,20.0009573 104.30582,18.9572397 L104.30582,18.9572397 L104.30582,11.084627 L103.014193,11.084627 L102.945408,11.9792421 C102.379845,11.2834304 101.59264,10.9355245 100.583797,10.9355245 C99.6004282,10.9355245 98.8106767,11.3070383 98.2145413,12.0500658 C97.6184058,12.7930934 97.3203385,13.7933227 97.3203385,15.0507539 C97.3203385,16.362856 97.6196802,17.3991184 98.2183627,18.1595413 C98.8170451,18.9199641 99.6004282,19.3001755 100.568511,19.3001755 C101.546784,19.3001755 102.318702,18.9820901 102.884267,18.3459194 L102.884267,18.3459194 L102.884267,19.0392461 C102.884267,19.7251177 102.691924,20.2569166 102.307238,20.634643 C101.922553,21.0123694 101.386286,21.2012326 100.698438,21.2012326 C99.8220684,21.2012326 99.0807207,20.8359314 98.4743955,20.1053291 L98.4743955,20.1053291 L97.7406906,20.932848 C98.0413057,21.3652453 98.4769425,21.705696 99.0476016,21.9542002 C99.6182608,22.2027045 100.201659,22.3269565 100.797794,22.3269565 Z M100.920078,18.1297208 C100.23223,18.1297208 99.6972366,17.8700339 99.3150986,17.3506602 C98.9329606,16.8312864 98.7418916,16.1168369 98.7418916,15.2073115 C98.7418916,14.1834743 98.9355085,13.4106262 99.3227414,12.8887675 C99.7099743,12.3669086 100.247515,12.1059793 100.935363,12.1059793 C101.801543,12.1059793 102.451177,12.4911608 102.884267,13.2615238 L102.884267,13.2615238 L102.884267,16.9443558 C102.466463,17.7345991 101.811733,18.1297208 100.920078,18.1297208 Z M107.628454,19.151073 L107.628454,13.4031712 C107.822071,13.0155046 108.092115,12.7023893 108.438586,12.4638253 C108.785058,12.2252613 109.187576,12.1059793 109.646142,12.1059793 C110.211706,12.1059793 110.628236,12.2451416 110.895733,12.5234663 C111.16323,12.801791 111.299525,13.2317033 111.30462,13.813203 L111.30462,13.813203 L111.30462,19.151073 L112.718531,19.151073 L112.718531,13.8206582 C112.703245,11.8972357 111.821781,10.9355245 110.074136,10.9355245 C109.070388,10.9355245 108.25516,11.3107659 107.628454,12.0612485 L107.628454,12.0612485 L107.628454,7.7 L106.214544,7.7 L106.214544,19.151073 L107.628454,19.151073 Z M117.027081,19.3001755 C117.378648,19.3001755 117.740406,19.2504747 118.112353,19.151073 L118.112353,19.151073 L118.112353,18.0328042 C117.827023,18.0924452 117.602835,18.1222657 117.43979,18.1222657 C117.108604,18.1222657 116.874226,18.0415018 116.736657,17.8799741 C116.599086,17.7184464 116.530302,17.4761548 116.530302,17.1530993 L116.530302,17.1530993 L116.530302,12.15071 L118.074139,12.15071 L118.074139,11.084627 L116.530302,11.084627 L116.530302,9.13138412 L115.116392,9.13138412 L115.116392,11.084627 L113.610768,11.084627 L113.610768,12.15071 L115.116392,12.15071 L115.116392,17.1530993 C115.116392,17.8389709 115.27689,18.3682848 115.597885,18.7410411 C115.918881,19.1137974 116.39528,19.3001755 117.027081,19.3001755 Z" id="GraphInsight" fill-opacity="0.85" fill="#000000" fill-rule="nonzero"></path>
        <path d="M95,10 C95.8284271,10 96.5,9.32842712 96.5,8.5 C96.5,7.67157288 95.8284271,7 95,7 C94.1715729,7 93.5,7.67157288 93.5,8.5 C93.5,9.32842712 94.1715729,10 95,10 Z" id="椭圆形备份-10" fill="#20D291" fill-rule="nonzero"></path>
    </g>
</svg>