<?xml version="1.0" encoding="UTF-8"?>
<svg width="130px" height="24px" viewBox="0 0 130 24" version="1.1" xmlns="http://www.w3.org/2000/svg" xmlns:xlink="http://www.w3.org/1999/xlink">
    <title>编组 6</title>
    <defs>
        <path d="M3.31329768,4.11345455 C-0.976357126,8.43509091 -0.976357126,15.4670909 3.31329768,19.7889091 L3.31329768,19.7889091 C3.33188637,19.8074545 3.350836,19.8254545 3.3699661,19.8432727 L3.3699661,19.8432727 L3.57931439,20.0449091 L3.57462211,20.0498182 C6.08716257,22.5063636 9.40118214,23.8581818 12.9175116,23.8581818 L12.9175116,23.8581818 C16.5058496,23.8581818 19.8758157,22.4541818 22.406223,19.9050909 L22.406223,19.9050909 C26.6958778,15.5832727 26.6958778,8.55127273 22.406223,4.22963636 L22.406223,4.22963636 C22.3851077,4.20854545 22.3639924,4.18854545 22.3423356,4.16836364 L22.3423356,4.16836364 L22.135514,3.96909091 L22.1403867,3.96436364 C19.5482578,1.43327273 16.1748627,0.168909091 12.8030919,0.168909091 L12.8030919,0.168909091 C9.36220005,0.168909091 5.92293244,1.48454545 3.31329768,4.11345455 L3.31329768,4.11345455 Z M5.2008613,17.8870909 C3.62695918,16.3014545 2.76032943,14.1934545 2.76032943,11.9512727 L2.76032943,11.9512727 C2.76032943,9.70872727 3.62695918,7.60054545 5.2008613,6.01490909 L5.2008613,6.01490909 C6.57082931,4.63490909 8.28676343,3.65381818 10.1638596,3.17836364 L10.1638596,3.17836364 L11.0931134,2.94290909 L10.3441518,3.54490909 C10.0700138,3.76527273 9.81338171,3.99563636 9.58111339,4.22963636 L9.58111339,4.22963636 C8.35606493,5.464 7.58815374,7.10145455 7.41850943,8.84090909 L7.41850943,8.84090909 C7.41417809,8.88709091 7.41092958,8.93327273 7.40768107,8.97981818 L7.40768107,8.97981818 L7.40389114,9.03236364 C7.24471425,11.2365455 8.03825257,13.3918182 9.58111339,14.9465455 L9.58111339,14.9465455 C10.7682626,16.1423636 12.3463156,16.8010909 14.0248919,16.8010909 L14.0248919,16.8010909 C14.2427224,16.8010909 14.4686741,16.7885455 14.6971525,16.7643636 L14.6971525,16.7643636 L15.129926,16.7183636 L14.8931459,17.0865455 C14.7070785,17.376 14.4908723,17.6454545 14.2508436,17.8870909 L14.2508436,17.8870909 C13.0440229,19.1029091 11.4370943,19.7723636 9.725672,19.7723636 L9.725672,19.7723636 C8.01461065,19.7723636 6.40768202,19.1029091 5.2008613,17.8870909 L5.2008613,17.8870909 Z M10.8263748,6.93236364 C11.0120812,6.64327273 11.2281069,6.37363636 11.468677,6.13109091 L11.468677,6.13109091 C12.6753173,4.91545455 14.2824264,4.246 15.9934877,4.246 L15.9934877,4.246 C17.70491,4.246 19.3118386,4.91545455 20.5186593,6.13109091 L20.5186593,6.13109091 C23.7675283,9.40454545 23.7675283,14.7301818 20.5186593,18.0032727 L20.5186593,18.0032727 C19.1486913,19.3836364 17.4325767,20.3645455 15.555661,20.8401818 L15.555661,20.8401818 L14.6262268,21.0756364 L15.3751884,20.4736364 C15.648424,20.2541818 15.9052366,20.0236364 16.1384073,19.7889091 L16.1384073,19.7889091 C17.3634557,18.5545455 18.1315474,16.9169091 18.3011917,15.1774545 L18.3011917,15.1774545 C18.305523,15.132 18.3085911,15.0865455 18.3116591,15.0410909 L18.3116591,15.0410909 L18.3156295,14.986 C18.4748064,12.782 17.6812681,10.6265455 16.1384073,9.072 L16.1384073,9.072 C14.9514385,7.87618182 13.3733855,7.21763636 11.6946288,7.21763636 L11.6946288,7.21763636 C11.4769788,7.21763636 11.2508465,7.22981818 11.0223681,7.254 L11.0223681,7.254 L10.5899556,7.3 L10.8263748,6.93236364 Z M11.468677,13.0447273 C10.7621265,12.3329091 10.2972289,11.4318182 10.1243361,10.4390909 L10.1243361,10.4390909 L10.0960019,10.2770909 L10.2457942,10.2109091 C10.7036534,10.0092727 11.1912905,9.90690909 11.6946288,9.90690909 L11.6946288,9.90690909 C12.6605185,9.90690909 13.568296,10.2858182 14.2508436,10.9734545 L14.2508436,10.9734545 C14.9573941,11.6852727 15.4222917,12.5865455 15.5955455,13.5794545 L15.5955455,13.5794545 L15.6235187,13.7412727 L15.4739069,13.8072727 C15.0158673,14.0092727 14.5285911,14.1116364 14.0248919,14.1116364 L14.0248919,14.1116364 C13.0591826,14.1116364 12.1514051,13.7327273 11.468677,13.0447273 L11.468677,13.0447273 Z" id="path-1"></path>
        <linearGradient x1="16.1767972%" y1="81.6062622%" x2="83.8235002%" y2="18.3625247%" id="linearGradient-3">
            <stop stop-color="#0DF7FF" offset="0%"></stop>
            <stop stop-color="#9C00FF" offset="100%"></stop>
        </linearGradient>
    </defs>
    <g id="页面-1" stroke="none" stroke-width="1" fill="none" fill-rule="evenodd">
        <g id="用户主页-Light" transform="translate(-11.000000, -9.000000)">
            <g id="编组-6" transform="translate(11.000000, 9.000000)">
                <g id="编组">
                    <mask id="mask-2" fill="white">
                        <use xlink:href="#path-1"></use>
                    </mask>
                    <g id="Clip-22"></g>
                    <path d="M3.31329768,4.11345455 C-0.976357126,8.43509091 -0.976357126,15.4670909 3.31329768,19.7889091 L3.31329768,19.7889091 C3.33188637,19.8074545 3.350836,19.8254545 3.3699661,19.8432727 L3.3699661,19.8432727 L3.57931439,20.0449091 L3.57462211,20.0498182 C6.08716257,22.5063636 9.40118214,23.8581818 12.9175116,23.8581818 L12.9175116,23.8581818 C16.5058496,23.8581818 19.8758157,22.4541818 22.406223,19.9050909 L22.406223,19.9050909 C26.6958778,15.5832727 26.6958778,8.55127273 22.406223,4.22963636 L22.406223,4.22963636 C22.3851077,4.20854545 22.3639924,4.18854545 22.3423356,4.16836364 L22.3423356,4.16836364 L22.135514,3.96909091 L22.1403867,3.96436364 C19.5482578,1.43327273 16.1748627,0.168909091 12.8030919,0.168909091 L12.8030919,0.168909091 C9.36220005,0.168909091 5.92293244,1.48454545 3.31329768,4.11345455 L3.31329768,4.11345455 Z M5.2008613,17.8870909 C3.62695918,16.3014545 2.76032943,14.1934545 2.76032943,11.9512727 L2.76032943,11.9512727 C2.76032943,9.70872727 3.62695918,7.60054545 5.2008613,6.01490909 L5.2008613,6.01490909 C6.57082931,4.63490909 8.28676343,3.65381818 10.1638596,3.17836364 L10.1638596,3.17836364 L11.0931134,2.94290909 L10.3441518,3.54490909 C10.0700138,3.76527273 9.81338171,3.99563636 9.58111339,4.22963636 L9.58111339,4.22963636 C8.35606493,5.464 7.58815374,7.10145455 7.41850943,8.84090909 L7.41850943,8.84090909 C7.41417809,8.88709091 7.41092958,8.93327273 7.40768107,8.97981818 L7.40768107,8.97981818 L7.40389114,9.03236364 C7.24471425,11.2365455 8.03825257,13.3918182 9.58111339,14.9465455 L9.58111339,14.9465455 C10.7682626,16.1423636 12.3463156,16.8010909 14.0248919,16.8010909 L14.0248919,16.8010909 C14.2427224,16.8010909 14.4686741,16.7885455 14.6971525,16.7643636 L14.6971525,16.7643636 L15.129926,16.7183636 L14.8931459,17.0865455 C14.7070785,17.376 14.4908723,17.6454545 14.2508436,17.8870909 L14.2508436,17.8870909 C13.0440229,19.1029091 11.4370943,19.7723636 9.725672,19.7723636 L9.725672,19.7723636 C8.01461065,19.7723636 6.40768202,19.1029091 5.2008613,17.8870909 L5.2008613,17.8870909 Z M10.8263748,6.93236364 C11.0120812,6.64327273 11.2281069,6.37363636 11.468677,6.13109091 L11.468677,6.13109091 C12.6753173,4.91545455 14.2824264,4.246 15.9934877,4.246 L15.9934877,4.246 C17.70491,4.246 19.3118386,4.91545455 20.5186593,6.13109091 L20.5186593,6.13109091 C23.7675283,9.40454545 23.7675283,14.7301818 20.5186593,18.0032727 L20.5186593,18.0032727 C19.1486913,19.3836364 17.4325767,20.3645455 15.555661,20.8401818 L15.555661,20.8401818 L14.6262268,21.0756364 L15.3751884,20.4736364 C15.648424,20.2541818 15.9052366,20.0236364 16.1384073,19.7889091 L16.1384073,19.7889091 C17.3634557,18.5545455 18.1315474,16.9169091 18.3011917,15.1774545 L18.3011917,15.1774545 C18.305523,15.132 18.3085911,15.0865455 18.3116591,15.0410909 L18.3116591,15.0410909 L18.3156295,14.986 C18.4748064,12.782 17.6812681,10.6265455 16.1384073,9.072 L16.1384073,9.072 C14.9514385,7.87618182 13.3733855,7.21763636 11.6946288,7.21763636 L11.6946288,7.21763636 C11.4769788,7.21763636 11.2508465,7.22981818 11.0223681,7.254 L11.0223681,7.254 L10.5899556,7.3 L10.8263748,6.93236364 Z M11.468677,13.0447273 C10.7621265,12.3329091 10.2972289,11.4318182 10.1243361,10.4390909 L10.1243361,10.4390909 L10.0960019,10.2770909 L10.2457942,10.2109091 C10.7036534,10.0092727 11.1912905,9.90690909 11.6946288,9.90690909 L11.6946288,9.90690909 C12.6605185,9.90690909 13.568296,10.2858182 14.2508436,10.9734545 L14.2508436,10.9734545 C14.9573941,11.6852727 15.4222917,12.5865455 15.5955455,13.5794545 L15.5955455,13.5794545 L15.6235187,13.7412727 L15.4739069,13.8072727 C15.0158673,14.0092727 14.5285911,14.1116364 14.0248919,14.1116364 L14.0248919,14.1116364 C13.0591826,14.1116364 12.1514051,13.7327273 11.468677,13.0447273 L11.468677,13.0447273 Z" id="Fill-21" fill="url(#linearGradient-3)" mask="url(#mask-2)"></path>
                </g>
                <path d="M40.472,17.968 C41.1653333,17.968 41.7786667,17.8506667 42.312,17.616 C42.8453333,17.3813333 43.3786667,16.96 43.912,16.352 L43.912,16.352 L44.216,17.696 L45.496,17.696 L45.496,11.68 L40.632,11.68 L40.632,13.2 L43.672,13.2 C43.6613333,13.68 43.5866667,14.1173333 43.448,14.512 C43.3093333,14.9066667 43.104,15.24 42.832,15.512 C42.56,15.784 42.2266667,15.992 41.832,16.136 C41.4373333,16.28 40.984,16.3466667 40.472,16.336 C39.864,16.336 39.3386667,16.2133333 38.896,15.968 C38.4533333,15.7226667 38.0933333,15.3946667 37.816,14.984 C37.5386667,14.5733333 37.3333333,14.1066667 37.2,13.584 C37.0666667,13.0613333 37,12.528 37,11.984 C37,11.44 37.0666667,10.9066667 37.2,10.384 C37.3333333,9.86133333 37.5386667,9.39466667 37.816,8.984 C38.0933333,8.57333333 38.4533333,8.24533333 38.896,8 C39.3386667,7.75466667 39.864,7.632 40.472,7.632 C40.8346667,7.632 41.1813333,7.68 41.512,7.776 C41.8426667,7.872 42.1413333,8.016 42.408,8.208 C42.6746667,8.4 42.896,8.63733333 43.072,8.92 C43.248,9.20266667 43.3626667,9.53066667 43.416,9.904 L43.416,9.904 L45.368,9.904 C45.2933333,9.264 45.112,8.69866667 44.824,8.208 C44.536,7.71733333 44.1733333,7.30933333 43.736,6.984 C43.2986667,6.65866667 42.8,6.41333333 42.24,6.248 C41.68,6.08266667 41.0906667,6 40.472,6 C39.6186667,6 38.8533333,6.16 38.176,6.48 C37.4986667,6.8 36.9253333,7.232 36.456,7.776 C35.9866667,8.32 35.6266667,8.95466667 35.376,9.68 C35.1253333,10.4053333 35,11.1733333 35,11.984 C35,12.8053333 35.1253333,13.5786667 35.376,14.304 C35.6266667,15.0293333 35.9866667,15.664 36.456,16.208 C36.9253333,16.752 37.4986667,17.1813333 38.176,17.496 C38.8533333,17.8106667 39.6186667,17.968 40.472,17.968 Z M49.24,17.696 L49.24,13.76 C49.24,13.3013333 49.2986667,12.896 49.416,12.544 C49.5333333,12.192 49.6933333,11.896 49.896,11.656 C50.0986667,11.416 50.336,11.2346667 50.608,11.112 C50.88,10.9893333 51.1706667,10.928 51.48,10.928 C51.608,10.928 51.7386667,10.936 51.872,10.952 C52.0053333,10.968 52.136,10.9866667 52.264,11.008 L52.264,11.008 L52.264,9.248 C52.1786667,9.23733333 52.096,9.22666667 52.016,9.216 C51.936,9.20533333 51.7893333,9.2 51.576,9.2 C51.2986667,9.2 51.0266667,9.25333333 50.76,9.36 C50.4933333,9.46666667 50.2506667,9.608 50.032,9.784 C49.8133333,9.96 49.6266667,10.1546667 49.472,10.368 C49.3173333,10.5813333 49.2133333,10.8 49.16,11.024 L49.16,11.024 L49.128,11.024 L49.128,9.424 L47.416,9.424 L47.416,17.696 L49.24,17.696 Z M59.704,17.92 C59.7786667,17.92 59.8693333,17.9146667 59.976,17.904 C60.0826667,17.8933333 60.1893333,17.8773333 60.296,17.856 C60.4026667,17.8346667 60.5066667,17.8106667 60.608,17.784 C60.7093333,17.7573333 60.792,17.7333333 60.856,17.712 L60.856,17.712 L60.856,16.448 C60.76,16.4693333 60.6746667,16.48 60.6,16.48 L60.6,16.48 L60.408,16.48 C60.2373333,16.48 60.1226667,16.432 60.064,16.336 C60.0053333,16.24 59.976,16.08 59.976,15.856 L59.976,15.856 L59.976,11.6 C59.976,11.1626667 59.88,10.792 59.688,10.488 C59.496,10.184 59.2426667,9.936 58.928,9.744 C58.6133333,9.552 58.2586667,9.41333333 57.864,9.328 C57.4693333,9.24266667 57.0693333,9.2 56.664,9.2 C56.2053333,9.2 55.7573333,9.24266667 55.32,9.328 C54.8826667,9.41333333 54.4906667,9.56266667 54.144,9.776 C53.7973333,9.98933333 53.512,10.272 53.288,10.624 C53.064,10.976 52.936,11.4186667 52.904,11.952 L52.904,11.952 L54.728,11.952 C54.7706667,11.504 54.9573333,11.1733333 55.288,10.96 C55.6186667,10.7466667 56.04,10.64 56.552,10.64 C56.7333333,10.64 56.9253333,10.6533333 57.128,10.68 C57.3306667,10.7066667 57.5146667,10.76 57.68,10.84 C57.8453333,10.92 57.984,11.0346667 58.096,11.184 C58.208,11.3333333 58.264,11.5253333 58.264,11.76 C58.264,12.0266667 58.1973333,12.2266667 58.064,12.36 C57.9306667,12.4933333 57.7493333,12.592 57.52,12.656 C57.2906667,12.72 57.0266667,12.7653333 56.728,12.792 C56.4293333,12.8186667 56.1146667,12.864 55.784,12.928 C55.4,12.9706667 55.0186667,13.032 54.64,13.112 C54.2613333,13.192 53.92,13.3226667 53.616,13.504 C53.312,13.6853333 53.0666667,13.936 52.88,14.256 C52.6933333,14.576 52.6,14.992 52.6,15.504 C52.6,15.9093333 52.6773333,16.264 52.832,16.568 C52.9866667,16.872 53.1946667,17.1226667 53.456,17.32 C53.7173333,17.5173333 54.0186667,17.6666667 54.36,17.768 C54.7013333,17.8693333 55.0586667,17.92 55.432,17.92 C55.9226667,17.92 56.432,17.84 56.96,17.68 C57.488,17.52 57.9333333,17.264 58.296,16.912 C58.3706667,17.2853333 58.5306667,17.5466667 58.776,17.696 C59.0213333,17.8453333 59.3306667,17.92 59.704,17.92 Z M56.104,16.48 C55.944,16.48 55.7653333,16.464 55.568,16.432 C55.3706667,16.4 55.1893333,16.344 55.024,16.264 C54.8586667,16.184 54.7173333,16.0746667 54.6,15.936 C54.4826667,15.7973333 54.424,15.6266667 54.424,15.424 C54.424,15.1893333 54.464,14.9893333 54.544,14.824 C54.624,14.6586667 54.7333333,14.5253333 54.872,14.424 C55.0106667,14.3226667 55.1706667,14.2426667 55.352,14.184 C55.5333333,14.1253333 55.72,14.08 55.912,14.048 C56.3173333,13.9733333 56.7226667,13.9173333 57.128,13.88 C57.5333333,13.8426667 57.8746667,13.7333333 58.152,13.552 L58.152,13.552 L58.152,14.912 C58.152,15.2 58.0826667,15.4426667 57.944,15.64 C57.8053333,15.8373333 57.632,16 57.424,16.128 C57.216,16.256 56.9946667,16.3466667 56.76,16.4 C56.5253333,16.4533333 56.3066667,16.48 56.104,16.48 Z M63.816,20.752 L63.816,16.624 L63.848,16.624 C63.9866667,16.848 64.16,17.0426667 64.368,17.208 C64.576,17.3733333 64.8026667,17.5093333 65.048,17.616 C65.2933333,17.7226667 65.5493333,17.8 65.816,17.848 C66.0826667,17.896 66.3493333,17.92 66.616,17.92 C67.224,17.92 67.752,17.8 68.2,17.56 C68.648,17.32 69.0186667,17 69.312,16.6 C69.6053333,16.2 69.824,15.7386667 69.968,15.216 C70.112,14.6933333 70.184,14.1546667 70.184,13.6 C70.184,12.992 70.104,12.4213333 69.944,11.888 C69.784,11.3546667 69.544,10.888 69.224,10.488 C68.904,10.088 68.5013333,9.77333333 68.016,9.544 C67.5306667,9.31466667 66.9626667,9.2 66.312,9.2 C65.7786667,9.2 65.2826667,9.304 64.824,9.512 C64.3653333,9.72 64.008,10.064 63.752,10.544 L63.752,10.544 L63.72,10.544 L63.72,9.424 L61.992,9.424 L61.992,20.752 L63.816,20.752 Z M66.072,16.48 C65.6986667,16.48 65.3706667,16.4053333 65.088,16.256 C64.8053333,16.1066667 64.5626667,15.904 64.36,15.648 C64.1573333,15.392 64.0053333,15.0853333 63.904,14.728 C63.8026667,14.3706667 63.752,13.984 63.752,13.568 C63.752,12.6826667 63.9466667,11.9733333 64.336,11.44 C64.7253333,10.9066667 65.304,10.64 66.072,10.64 C66.4453333,10.64 66.776,10.7226667 67.064,10.888 C67.352,11.0533333 67.592,11.272 67.784,11.544 C67.976,11.816 68.12,12.128 68.216,12.48 C68.312,12.832 68.36,13.1946667 68.36,13.568 C68.36,13.9306667 68.32,14.2853333 68.24,14.632 C68.16,14.9786667 68.0266667,15.288 67.84,15.56 C67.6533333,15.832 67.416,16.0533333 67.128,16.224 C66.84,16.3946667 66.488,16.48 66.072,16.48 Z M73.544,17.696 L73.544,12.816 C73.544,12.5173333 73.592,12.2346667 73.688,11.968 C73.784,11.7013333 73.9173333,11.4693333 74.088,11.272 C74.2586667,11.0746667 74.4666667,10.92 74.712,10.808 C74.9573333,10.696 75.2346667,10.64 75.544,10.64 C76.088,10.64 76.488,10.7866667 76.744,11.08 C77,11.3733333 77.1386667,11.8453333 77.16,12.496 L77.16,12.496 L77.16,17.696 L78.984,17.696 L78.984,12.016 C78.984,11.0773333 78.7226667,10.3733333 78.2,9.904 C77.6773333,9.43466667 76.9626667,9.2 76.056,9.2 C75.512,9.2 75.0186667,9.32533333 74.576,9.576 C74.1333333,9.82666667 73.8,10.1386667 73.576,10.512 L73.576,10.512 L73.544,10.512 L73.544,6.272 L71.72,6.272 L71.72,17.696 L73.544,17.696 Z M83.16,17.696 L83.16,6.272 L81.16,6.272 L81.16,17.696 L83.16,17.696 Z M87.176,17.696 L87.176,12.816 C87.176,12.5173333 87.224,12.2346667 87.32,11.968 C87.416,11.7013333 87.5493333,11.4693333 87.72,11.272 C87.8906667,11.0746667 88.0986667,10.92 88.344,10.808 C88.5893333,10.696 88.8666667,10.64 89.176,10.64 C89.72,10.64 90.12,10.7866667 90.376,11.08 C90.632,11.3733333 90.7706667,11.8453333 90.792,12.496 L90.792,12.496 L90.792,17.696 L92.616,17.696 L92.616,12.016 C92.616,11.0773333 92.3546667,10.3733333 91.832,9.904 C91.3093333,9.43466667 90.5946667,9.2 89.688,9.2 C89.144,9.2 88.648,9.33066667 88.2,9.592 C87.752,9.85333333 87.3893333,10.2133333 87.112,10.672 L87.112,10.672 L87.08,10.64 L87.08,9.424 L85.352,9.424 L85.352,17.696 L87.176,17.696 Z M97.752,17.92 C98.1786667,17.92 98.6106667,17.872 99.048,17.776 C99.4853333,17.68 99.8826667,17.5253333 100.24,17.312 C100.597333,17.0986667 100.888,16.8213333 101.112,16.48 C101.336,16.1386667 101.448,15.7226667 101.448,15.232 C101.448,14.8266667 101.370667,14.4853333 101.216,14.208 C101.061333,13.9306667 100.858667,13.7013333 100.608,13.52 C100.357333,13.3386667 100.072,13.1946667 99.752,13.088 C99.432,12.9813333 99.1066667,12.8906667 98.776,12.816 C98.4346667,12.7413333 98.104,12.672 97.784,12.608 C97.464,12.544 97.1786667,12.4666667 96.928,12.376 C96.6773333,12.2853333 96.4746667,12.1706667 96.32,12.032 C96.1653333,11.8933333 96.088,11.712 96.088,11.488 C96.088,11.3066667 96.1413333,11.16 96.248,11.048 C96.3546667,10.936 96.4853333,10.8506667 96.64,10.792 C96.7946667,10.7333333 96.96,10.6933333 97.136,10.672 C97.312,10.6506667 97.464,10.64 97.592,10.64 C97.9973333,10.64 98.3573333,10.7146667 98.672,10.864 C98.9866667,11.0133333 99.1866667,11.3066667 99.272,11.744 L99.272,11.744 L101.176,11.744 C101.122667,11.2853333 100.992,10.8933333 100.784,10.568 C100.576,10.2426667 100.314667,9.97866667 100,9.776 C99.6853333,9.57333333 99.3333333,9.42666667 98.944,9.336 C98.5546667,9.24533333 98.1466667,9.2 97.72,9.2 C97.3466667,9.2 96.9546667,9.23733333 96.544,9.312 C96.1333333,9.38666667 95.76,9.51733333 95.424,9.704 C95.088,9.89066667 94.8106667,10.136 94.592,10.44 C94.3733333,10.744 94.264,11.12 94.264,11.568 C94.264,11.984 94.3386667,12.3333333 94.488,12.616 C94.6373333,12.8986667 94.8373333,13.1306667 95.088,13.312 C95.3386667,13.4933333 95.6213333,13.6373333 95.936,13.744 C96.2506667,13.8506667 96.5786667,13.9413333 96.92,14.016 C97.2506667,14.0906667 97.576,14.16 97.896,14.224 C98.216,14.288 98.5013333,14.3653333 98.752,14.456 C99.0026667,14.5466667 99.208,14.6666667 99.368,14.816 C99.528,14.9653333 99.6133333,15.1573333 99.624,15.392 C99.6346667,15.6266667 99.5786667,15.816 99.456,15.96 C99.3333333,16.104 99.176,16.2133333 98.984,16.288 C98.792,16.3626667 98.5866667,16.4133333 98.368,16.44 C98.1493333,16.4666667 97.9546667,16.48 97.784,16.48 C97.2933333,16.48 96.872,16.3733333 96.52,16.16 C96.168,15.9466667 95.9653333,15.5733333 95.912,15.04 L95.912,15.04 L94.088,15.04 C94.0986667,15.5306667 94.1973333,15.9546667 94.384,16.312 C94.5706667,16.6693333 94.8266667,16.968 95.152,17.208 C95.4773333,17.448 95.8613333,17.6266667 96.304,17.744 C96.7466667,17.8613333 97.2293333,17.92 97.752,17.92 Z M104.712,8 L104.712,6.272 L102.888,6.272 L102.888,8 L104.712,8 Z M104.712,17.696 L104.712,9.424 L102.888,9.424 L102.888,17.696 L104.712,17.696 Z M110.28,20.976 C111.592,20.976 112.597333,20.6693333 113.296,20.056 C113.994667,19.4426667 114.344,18.512 114.344,17.264 L114.344,17.264 L114.344,9.424 L112.52,9.424 L112.52,10.56 L112.488,10.56 C112.253333,10.0906667 111.917333,9.74666667 111.48,9.528 C111.042667,9.30933333 110.562667,9.2 110.04,9.2 C109.453333,9.2 108.928,9.312 108.464,9.536 C108,9.76 107.608,10.0613333 107.288,10.44 C106.968,10.8186667 106.722667,11.2586667 106.552,11.76 C106.381333,12.2613333 106.296,12.7893333 106.296,13.344 C106.296,13.9413333 106.365333,14.5013333 106.504,15.024 C106.642667,15.5466667 106.864,16.008 107.168,16.408 C107.472,16.808 107.856,17.1226667 108.32,17.352 C108.784,17.5813333 109.346667,17.696 110.008,17.696 C110.52,17.696 110.997333,17.568 111.44,17.312 C111.882667,17.056 112.232,16.6986667 112.488,16.24 L112.488,16.24 L112.52,16.24 L112.52,17.504 C112.52,18.1866667 112.349333,18.7093333 112.008,19.072 C111.666667,19.4346667 111.128,19.616 110.392,19.616 C110.157333,19.616 109.933333,19.6026667 109.72,19.576 C109.506667,19.5493333 109.312,19.4906667 109.136,19.4 C108.96,19.3093333 108.808,19.184 108.68,19.024 C108.552,18.864 108.461333,18.656 108.408,18.4 L108.408,18.4 L106.584,18.4 C106.626667,18.88 106.765333,19.2853333 107,19.616 C107.234667,19.9466667 107.525333,20.2133333 107.872,20.416 C108.218667,20.6186667 108.602667,20.7626667 109.024,20.848 C109.445333,20.9333333 109.864,20.976 110.28,20.976 Z M110.296,16.256 C109.912,16.256 109.584,16.176 109.312,16.016 C109.04,15.856 108.816,15.648 108.64,15.392 C108.464,15.136 108.333333,14.8453333 108.248,14.52 C108.162667,14.1946667 108.12,13.8613333 108.12,13.52 C108.12,13.1786667 108.157333,12.8346667 108.232,12.488 C108.306667,12.1413333 108.429333,11.832 108.6,11.56 C108.770667,11.288 108.994667,11.0666667 109.272,10.896 C109.549333,10.7253333 109.890667,10.64 110.296,10.64 C110.690667,10.64 111.029333,10.7146667 111.312,10.864 C111.594667,11.0133333 111.824,11.216 112,11.472 C112.176,11.728 112.306667,12.0213333 112.392,12.352 C112.477333,12.6826667 112.52,13.024 112.52,13.376 C112.52,13.728 112.48,14.0773333 112.4,14.424 C112.32,14.7706667 112.192,15.08 112.016,15.352 C111.84,15.624 111.610667,15.8426667 111.328,16.008 C111.045333,16.1733333 110.701333,16.256 110.296,16.256 Z M118.008,17.696 L118.008,12.816 C118.008,12.5173333 118.056,12.2346667 118.152,11.968 C118.248,11.7013333 118.381333,11.4693333 118.552,11.272 C118.722667,11.0746667 118.930667,10.92 119.176,10.808 C119.421333,10.696 119.698667,10.64 120.008,10.64 C120.552,10.64 120.952,10.7866667 121.208,11.08 C121.464,11.3733333 121.602667,11.8453333 121.624,12.496 L121.624,12.496 L121.624,17.696 L123.448,17.696 L123.448,12.016 C123.448,11.0773333 123.186667,10.3733333 122.664,9.904 C122.141333,9.43466667 121.426667,9.2 120.52,9.2 C119.976,9.2 119.482667,9.32533333 119.04,9.576 C118.597333,9.82666667 118.264,10.1386667 118.04,10.512 L118.04,10.512 L118.008,10.512 L118.008,6.272 L116.184,6.272 L116.184,17.696 L118.008,17.696 Z M128.2,17.776 C128.402667,17.776 128.6,17.7653333 128.792,17.744 C128.984,17.7226667 129.181333,17.7013333 129.384,17.68 L129.384,17.68 L129.384,16.272 C129.256,16.304 129.128,16.3226667 129,16.328 C128.872,16.3333333 128.744,16.336 128.616,16.336 C128.413333,16.336 128.253333,16.312 128.136,16.264 C128.018667,16.216 127.930667,16.144 127.872,16.048 C127.813333,15.952 127.776,15.8346667 127.76,15.696 C127.744,15.5573333 127.736,15.392 127.736,15.2 L127.736,15.2 L127.736,10.784 L129.384,10.784 L129.384,9.424 L127.736,9.424 L127.736,6.944 L125.912,6.944 L125.912,9.424 L124.536,9.424 L124.536,10.784 L125.912,10.784 L125.912,15.664 C125.922667,16.0053333 125.957333,16.3093333 126.016,16.576 C126.074667,16.8426667 126.186667,17.064 126.352,17.24 C126.517333,17.416 126.746667,17.5493333 127.04,17.64 C127.333333,17.7306667 127.72,17.776 128.2,17.776 Z" id="GraphInsight" fill="#000000" fill-rule="nonzero"></path>
            </g>
        </g>
    </g>
</svg>